<?xml version="1.0" encoding="utf-8"?>
<!DOCTYPE svg PUBLIC "-//W3C//DTD SVG 1.1//EN" "http://www.w3.org/Graphics/SVG/1.1/DTD/svg11.dtd">
<svg version="1.1" id="logo-black" xmlns="http://www.w3.org/2000/svg" xmlns:xlink="http://www.w3.org/1999/xlink" x="0px" y="0px" viewBox="0 0 137 137" enable-background="new 0 0 137 137" xml:space="preserve">
  <rect width="137" height="137"/>
  <path fill="#FFFFFF" d="M86,17L86,17l-64,0v100h64v0c21-0.5,37.9-22.7,37.9-50C123.9,39.7,107,17.6,86,17z M77,88C77,88,77,88,77,88L77,88h-3v12.2L61.8,88H53V45h24v0c0,0,0,0,0,0c5.8,0,10.5,9.6,10.5,21.5C87.6,78.4,82.8,88,77,88z" />
  <g>
    <path fill="#FFFFFF" d="M18.2,71.2c0.5,0.5,0.8,1.3,0.8,2.2v3h-8.5v-3c0-0.9,0.3-1.7,0.8-2.2c0.9-0.9,2.2-0.9,3.4-0.9S17.3,70.3,18.2,71.2z M12.2,72.1c-0.4,0.4-0.6,0.8-0.6,1.5v1.6h6.2v-1.6c0-0.6-0.2-1.1-0.6-1.5c-0.5-0.4-1.4-0.5-2.6-0.5S12.7,71.6,12.2,72.1z" />
    <path fill="#FFFFFF" d="M19,68.4h-8.5v-5.5h1.2v4.2h2.5v-3.6h1.2v3.6h2.6v-4.2H19V68.4z" />
    <path fill="#FFFFFF" d="M19,54.9h-5.7l4.2,2v1l-4.2,2H19v1.3h-8.5v-1.3l5.3-2.5l-5.3-2.4v-1.3H19V54.9z" />
    <path fill="#FFFFFF" d="M19,51.4h-8.5V46h1.2v4.2h2.5v-3.6h1.2v3.6h2.6V46H19V51.4z" />
    <path fill="#FFFFFF" d="M11.6,41.3H19v1.3h-7.4v2.4h-1.2v-6h1.2V41.3z" />
    <path fill="#FFFFFF" d="M18.2,32.7c0.6,0.6,0.9,1.3,0.9,2.3c0,0.9-0.3,1.7-0.9,2.2C17.3,38,16.4,38,14.7,38s-2.6,0-3.4-0.8c-0.6-0.6-0.9-1.3-0.9-2.2c0-0.9,0.3-1.7,0.9-2.3c0.8-0.8,1.8-0.8,3.4-0.8S17.3,31.8,18.2,32.7z M12.1,33.7c-0.3,0.3-0.5,0.8-0.5,1.3c0,0.5,0.2,1,0.5,1.3c0.5,0.4,0.9,0.5,2.7,0.5c1.7,0,2.2-0.1,2.7-0.5c0.3-0.3,0.5-0.8,0.5-1.3c0-0.5-0.2-1-0.5-1.3c-0.5-0.4-0.9-0.5-2.7-0.5C13,33.2,12.5,33.2,12.1,33.7z" />
    <path fill="#FFFFFF" d="M19,25.2L15.4,27v1.6H19v1.3h-8.5v-3.3c0-1.6,1-2.7,2.5-2.7c1.2,0,2,0.7,2.3,1.7l3.8-2V25.2z M11.6,26.7v1.9h2.7v-1.9c0-0.9-0.5-1.5-1.3-1.5S11.6,25.9,11.6,26.7z" />
    <path fill="#FFFFFF" d="M15.5,19.3H19v1.3h-3.5l-5,2.6v-1.4l3.8-1.8l-3.8-1.8v-1.4L15.5,19.3z" />
  </g>
</svg>
