<svg id="switch-light" data-name="switch-light" xmlns="http://www.w3.org/2000/svg" viewBox="0 0 34.33 37.28" width="34.33" height="37.28">
  <defs>
    <style>.cls-1{fill:#121212;}</style>
  </defs>
  <path class="cls-1" d="M30.47,48.85a18.64,18.64,0,0,1,0-37.28c.63,0,1.25,0,1.88.09a1.56,1.56,0,0,1,1.13,2.43A15.5,15.5,0,0,0,44.75,38.22a1.56,1.56,0,0,1,1.14,2.43,18.63,18.63,0,0,1-15.42,8.2Zm-.95-34.13A15.52,15.52,0,1,0,41.73,40.87,18.63,18.63,0,0,1,29.52,14.72Z" transform="translate(-11.83 -11.57)"/>
</svg>
