<?xml version="1.0" encoding="utf-8"?>
<!DOCTYPE svg PUBLIC "-//W3C//DTD SVG 1.1//EN" "http://www.w3.org/Graphics/SVG/1.1/DTD/svg11.dtd">
<svg version="1.1" id="fatality" xmlns="http://www.w3.org/2000/svg" xmlns:xlink="http://www.w3.org/1999/xlink" x="0px" y="0px" viewBox="0 0 577 577" enable-background="new 0 0 577 577" xml:space="preserve">
  <g>
    <path fill="#ccc" d="M453,520H124c-6.6,0-12,5.4-12,12v22c0,6.6,5.4,12,12,12h329c6.6,0,12-5.4,12-12v-22C465,525.4,459.6,520,453,520z"/>
    <path fill="#ccc" d="M557,13H20C9,13,0,22,0,33v403c0,11,9,20,20,20h200v33c0,6.6,5.4,12,12,12h112c6.6,0,12-5.4,12-12v-33h201c11,0,20-9,20-20V33C577,22,568,13,557,13z M534,348c0,11-9,20-20,20H64c-11,0-20-9-20-20V76c0-11,9-20,20-20h450c11,0,20,9,20,20V348z"/>
    <polygon fill="#ccc" points="227,123 201.5,148.5 176,123 164,135 189.5,160.5 164,186 176,198 201.5,172.5 227,198 239,186 213.5,160.5 239,135"/>
    <polygon fill="#ccc" points="401,123 375.5,148.5 350,123 338,135 363.5,160.5 338,186 350,198 375.5,172.5 401,198 413,186 387.5,160.5 413,135"/>
  </g>
  <g>
    <path fill="#ccc" d="M372.5,315c-46.4-46.4-121.6-46.4-168,0c-4-4-8-8-12-12c53-53,139-53,192,0C380.5,307,376.5,311,372.5,315z"/>
  </g>
</svg>
